<?xml version="1.0" encoding="UTF-8"?>
<svg id="Layer_1" xmlns="http://www.w3.org/2000/svg" version="1.1" viewBox="0 0 1514 426">
  <!-- Generator: Adobe Illustrator 30.0.0, SVG Export Plug-In . SVG Version: 2.1.1 Build 123)  -->
  <defs>
    <style>
      .st0 {
        fill: #231f20;
      }
    </style>
  </defs>
  <g>
    <path class="st0" d="M85.01,332.04v-86.38h6.03v80.71h41.18v5.67h-47.21Z"/>
    <path class="st0" d="M144.8,249.98c0-3.78,1.24-5.67,3.72-5.67,1.22,0,2.18.49,2.87,1.48.69.98,1.03,2.38,1.03,4.19s-.35,3.17-1.03,4.19c-.69,1.02-1.65,1.54-2.87,1.54-2.48,0-3.72-1.91-3.72-5.73ZM151.48,332.04h-5.85v-64.22h5.85v64.22Z"/>
    <path class="st0" d="M200.1,266.58c8.98,0,15.75,2.83,20.29,8.48,4.55,5.65,6.82,13.91,6.82,24.78s-2.39,18.91-7.18,24.7c-4.79,5.79-11.51,8.69-20.18,8.69-4.57,0-8.69-.95-12.35-2.84s-6.56-4.57-8.69-8.04h-.53l-1.65,9.69h-3.66v-91.93h5.85v23.1c0,3.47-.08,6.66-.24,9.57l-.18,5.02h.41c2.44-3.86,5.39-6.7,8.83-8.51,3.45-1.81,7.59-2.72,12.44-2.72ZM199.99,271.9c-7.56,0-12.98,2.17-16.25,6.5-3.27,4.33-4.9,11.48-4.9,21.45v1c0,9.69,1.7,16.64,5.11,20.86,3.41,4.22,8.71,6.32,15.92,6.32s12.29-2.45,15.83-7.36c3.54-4.9,5.32-11.88,5.32-20.94,0-18.55-7.01-27.83-21.03-27.83Z"/>
    <path class="st0" d="M270.29,266.58c2.72,0,5.63.28,8.74.83l-1.12,5.61c-2.68-.67-5.46-1-8.33-1-5.48,0-9.97,2.32-13.47,6.97-3.51,4.65-5.26,10.52-5.26,17.61v35.45h-5.85v-64.22h4.96l.59,11.58h.41c2.64-4.73,5.46-8.04,8.45-9.96,2.99-1.91,6.62-2.87,10.87-2.87Z"/>
    <path class="st0" d="M331.09,332.04l-1.48-10.16h-.47c-3.23,4.14-6.55,7.06-9.96,8.77-3.41,1.71-7.44,2.57-12.08,2.57-6.3,0-11.21-1.61-14.71-4.84-3.51-3.23-5.26-7.7-5.26-13.41,0-6.26,2.61-11.13,7.83-14.59,5.22-3.47,12.77-5.3,22.66-5.49l12.23-.35v-4.25c0-6.1-1.24-10.71-3.72-13.83-2.48-3.11-6.48-4.67-11.99-4.67-5.95,0-12.11,1.65-18.49,4.96l-2.19-5.08c7.05-3.31,14.02-4.96,20.92-4.96s12.32,1.83,15.8,5.49c3.49,3.66,5.23,9.37,5.23,17.13v42.72h-4.31ZM307.46,327.91c6.85,0,12.26-1.96,16.22-5.88,3.96-3.92,5.94-9.36,5.94-16.34v-6.32l-11.23.47c-9.02.43-15.45,1.84-19.29,4.22-3.84,2.38-5.76,6.1-5.76,11.14,0,4.02,1.23,7.14,3.69,9.36,2.46,2.23,5.94,3.34,10.43,3.34Z"/>
    <path class="st0" d="M381.49,266.58c2.72,0,5.63.28,8.74.83l-1.12,5.61c-2.68-.67-5.46-1-8.33-1-5.48,0-9.97,2.32-13.47,6.97-3.51,4.65-5.26,10.52-5.26,17.61v35.45h-5.85v-64.22h4.96l.59,11.58h.41c2.64-4.73,5.46-8.04,8.45-9.96,2.99-1.91,6.62-2.87,10.87-2.87Z"/>
    <path class="st0" d="M402.46,249.98c0-3.78,1.24-5.67,3.72-5.67,1.22,0,2.18.49,2.87,1.48.69.98,1.03,2.38,1.03,4.19s-.35,3.17-1.03,4.19c-.69,1.02-1.65,1.54-2.87,1.54-2.48,0-3.72-1.91-3.72-5.73ZM409.14,332.04h-5.85v-64.22h5.85v64.22Z"/>
    <path class="st0" d="M456.58,333.22c-9.33,0-16.61-2.87-21.83-8.63-5.22-5.75-7.83-13.8-7.83-24.16s2.52-18.44,7.56-24.61c5.04-6.16,11.84-9.25,20.38-9.25,7.56,0,13.53,2.64,17.9,7.92,4.37,5.28,6.56,12.45,6.56,21.51v4.73h-46.26c.08,8.82,2.14,15.56,6.17,20.21,4.04,4.65,9.82,6.97,17.34,6.97,3.66,0,6.88-.26,9.66-.77,2.78-.51,6.29-1.61,10.55-3.31v5.32c-3.62,1.58-6.97,2.65-10.04,3.22-3.07.57-6.46.86-10.16.86ZM454.87,271.78c-6.18,0-11.15,2.04-14.89,6.12-3.74,4.08-5.93,9.96-6.56,17.64h39.7c0-7.44-1.62-13.26-4.84-17.46-3.23-4.19-7.7-6.29-13.41-6.29Z"/>
    <path class="st0" d="M536.87,315.32c0,5.75-2.19,10.17-6.56,13.26-4.37,3.09-10.58,4.64-18.61,4.64-8.59,0-15.4-1.32-20.44-3.96v-6.32c6.46,3.23,13.27,4.84,20.44,4.84,6.34,0,11.16-1.05,14.45-3.16,3.29-2.11,4.93-4.91,4.93-8.42,0-3.23-1.31-5.95-3.93-8.15-2.62-2.21-6.92-4.37-12.91-6.5-6.42-2.32-10.93-4.32-13.53-6-2.6-1.67-4.56-3.56-5.88-5.67-1.32-2.11-1.98-4.68-1.98-7.71,0-4.81,2.02-8.61,6.06-11.4,4.04-2.8,9.68-4.19,16.93-4.19s13.51,1.3,19.73,3.9l-2.19,5.32c-6.3-2.6-12.15-3.9-17.55-3.9s-9.39.87-12.47,2.6c-3.07,1.73-4.61,4.14-4.61,7.21,0,3.35,1.19,6.03,3.57,8.04,2.38,2.01,7.04,4.25,13.97,6.74,5.79,2.09,10,3.97,12.64,5.64,2.64,1.67,4.62,3.57,5.94,5.7,1.32,2.13,1.98,4.63,1.98,7.5Z"/>
  </g>
  <polygon class="st0" points="478.04 112.56 478.04 163.06 486.46 163.06 486.46 166.4 452.8 166.4 452.8 163.06 461.21 163.06 461.21 116.12 454.68 116.12 454.68 112.56 478.04 112.56"/>
  <path class="st0" d="M145.7,79.96h-3.04c-.12,2.59-1.48,3.71-4.08,3.71-5.2,0-12.79-6.31-21.69-6.31-25.35,0-40.68,24.98-40.68,46.99s14.59,44.02,39.08,44.02c14.84,0,20.4-7.05,24.36-7.05,2.6,0,3.08,2.29,3.08,5.07h3.35v-30.3h-3.35l-.74,4.2c-1.73,10.02-9.51,24.81-25.46,24.81-14.1,0-19.54-12.2-19.54-42.25,0-31.54,7.42-42.15,19.91-42.15,14.1,0,23.79,15.8,25.77,28.41h3.04v-29.18Z"/>
  <path class="st0" d="M189.06,151.88c-.24,6.47-3.9,11.76-9.64,11.76-8.29,0-8.66-7-8.66-12.35,0-6.47.73-10.73,8.66-11.59l9.64-.98v13.15ZM211.33,155.91c0,3.17-2.09,6.83-3.47,6.83-2.2,0-2.7-2.32-2.7-6.1v-28.06c0-13.9-13.05-17.32-25.61-17.32s-21.11,5.97-21.11,12.81c0,4.27,2.44,7.93,7.93,7.93,4.63,0,7.44-3.05,7.44-7.31,0-6.21-6.44-6.28-6.44-6.43,0-2.76,7.17-3.66,11.32-3.66,9.14,0,10.37,3.38,10.37,10.7v10.24l-11.95.98c-11.1.85-23.18,3.78-23.18,16.47,0,10.61,9.51,14.88,18.91,14.88,4.76,0,13.18-1.83,16.35-7.68,2.2,5.12,6.71,7.68,12.2,7.68,7.92,0,13.05-4.75,13.05-11.95h-3.1Z"/>
  <polygon class="st0" points="1345.59 112.39 1345.59 162.88 1354.01 162.88 1354.01 166.22 1320.35 166.22 1320.35 162.88 1328.76 162.88 1328.76 115.95 1320.35 115.95 1320.35 112.39 1345.59 112.39"/>
  <path class="st0" d="M614.36,138.44l20.21-57.81h27.88l-.08,3.45h-7.97v78.97h7.97v3.37h-33.49v-3.37h8.14v-78.1h-.24l-28.42,81.48h-3.3l-29.15-82.94h-.24v69.16c0,9.88,2.56,10.41,9.15,10.41h.37v3.37h-21.09v-3.37h0c6.96,0,8.25-4.07,8.25-9.31v-69.65h-8.25v-3.53h30.6l19.67,57.89Z"/>
  <path class="st0" d="M681.86,133.58v-8.2c0-8.17,3.54-10.73,7.68-10.73,5.86,0,7.69,4.02,7.69,10.73v8.2h-15.37ZM681.86,136.89h33.67c-.12-13.17-12.32-25.86-25.13-25.61-14.39,0-26.83,12.44-26.83,28.91s11.59,27.69,27.2,27.69,22.44-9.27,25.13-21.34h-3.32c-2.68,11.34-8.63,17.79-18.14,17.79-11.34,0-12.56-8.88-12.56-17.18v-10.25Z"/>
  <path class="st0" d="M1188.56,133.38v-8.2c0-8.17,3.54-10.73,7.68-10.73,5.86,0,7.69,4.02,7.69,10.73v8.2h-15.37ZM1188.56,136.7h33.67c-.12-13.17-12.32-25.86-25.13-25.61-14.39,0-26.83,12.44-26.83,28.91s11.59,27.69,27.2,27.69,22.44-9.27,25.13-21.34h-3.32c-2.68,11.34-8.63,17.79-18.14,17.79-11.34,0-12.56-8.88-12.56-17.18v-10.25Z"/>
  <polygon class="st0" points="715.74 80.74 715.74 83.84 724.15 83.84 724.15 162.96 715.74 162.96 715.74 166.41 749.4 166.41 749.4 162.96 740.98 162.96 740.98 80.74 715.74 80.74"/>
  <polygon class="st0" points="751.75 80.74 751.75 83.84 760.17 83.84 760.17 162.96 751.75 162.96 751.75 166.41 785.41 166.41 785.41 162.96 777 162.96 777 80.74 751.75 80.74"/>
  <path class="st0" d="M824.12,151.63c0,9.15-3.78,12.93-10,12.93s-10-3.78-10-12.93v-24c0-9.15,3.78-12.93,10-12.93s10,3.78,10,12.93v24ZM843.14,139.58c0-16.71-12.93-28.3-29.03-28.3s-29.03,11.59-29.03,28.3,12.93,28.3,29.03,28.3,29.03-11.59,29.03-28.3"/>
  <path class="st0" d="M930.68,83.53h8.53v54.18c0,18.91,13.05,30.37,32.93,30.37,22.44,0,32.2-11.83,32.2-29.76v-46.32c0-7.07,1.95-8.47,6.34-8.47h2.47v-3.27h-21.45v3.27h1.54c6.22,0,7.08,1.88,7.08,8.95v47.06c0,16.59-10.29,24.15-20.74,24.15-17.8,0-21.34-11.95-22.4-27.57v-52.59h8v-3.27h-34.49v3.27Z"/>
  <path class="st0" d="M1141.99,167.59h3.29l18.05-42.69c3.65-7.97,5.61-8.98,8.41-9.1h1.1v-3.34h-19.03v3.37h2.32c3.54,0,5.16-.23,5.16,2.94,0,1.96-.62,3.88-2.07,7.41l-8.29,19.52-13.27-29.87h6.77v-3.37h-30.61v3.37h5.73l22.44,51.76Z"/>
  <path class="st0" d="M1277.89,167.59h2.89c.61-1.95,1.86-2.92,4.3-2.92,3.17,0,6.96,2.92,13.78,2.92,11.59,0,19.51-10,19.51-20,0-14.88-10.24-15.98-23.29-17.81-6.83-.98-10.69-1.95-10.69-7.32,0-5.74,5-8.14,11.58-8.14,9.15,0,12.69,6.07,15.74,13.99h2.88v-17.32h-2.76c0,1.46-1.26,2.68-3.58,2.68-3.91,0-7.08-2.68-12.69-2.68-12.2,0-18.17,10.37-18.17,18.17,0,15.74,11.95,17.08,21.22,18.17,8.79,1.1,11.95,1.66,11.95,7.27,0,6.46-5.37,9.4-11.95,9.4-9.27,0-15.64-8.01-17.84-16.92h-2.89v20.49Z"/>
  <polygon class="st0" points="1109.36 112.39 1109.36 162.88 1117.77 162.88 1117.77 166.22 1084.11 166.22 1084.11 162.88 1092.53 162.88 1092.53 115.95 1084.11 115.95 1084.11 112.39 1109.36 112.39"/>
  <path class="st0" d="M1092.54,95.55c0,4.67,3.73,8.4,8.4,8.4s8.4-3.73,8.4-8.4-3.73-8.4-8.4-8.4-8.4,3.74-8.4,8.4"/>
  <path class="st0" d="M1328.74,95.55c0,4.67,3.73,8.4,8.4,8.4s8.4-3.73,8.4-8.4-3.73-8.4-8.4-8.4-8.4,3.74-8.4,8.4"/>
  <path class="st0" d="M358.08,133.56v-8.2c0-8.17,3.54-10.73,7.68-10.73,5.86,0,7.69,4.02,7.69,10.73v8.2h-15.37ZM358.08,136.87h33.67c-.12-13.17-12.32-25.86-25.13-25.61-14.39,0-26.83,12.44-26.83,28.91s11.59,27.69,27.2,27.69,22.44-9.27,25.13-21.34h-3.32c-2.68,11.34-8.63,17.79-18.14,17.79-11.34,0-12.56-8.88-12.56-17.18v-10.25Z"/>
  <path class="st0" d="M505.34,133.56v-8.2c0-8.17,3.54-10.73,7.68-10.73,4.37,0,7.69,2.53,7.69,10.73v8.2h-15.37ZM505.34,136.87h33.67c-.12-13.17-12.32-25.86-25.13-25.61-14.39,0-26.83,12.44-26.83,28.91s11.59,27.69,27.2,27.69,22.44-9.27,25.13-21.34h-3.32c-2.68,11.34-8.63,17.79-18.14,17.79-11.34,0-12.56-8.88-12.56-17.18v-10.25Z"/>
  <path class="st0" d="M1073.31,162.92v-32.93c0-13.17-5.61-19.33-17.19-19.33-8.18,0-16.46,4.69-19.76,11.76h0v-9.88h-25.25v3.29h8.41v47.08h-8.41v3.29h32.44v-3.29h-7.2v-32.18c1.05-4.53,6.79-14.98,13.45-14.98,4.43,0,6.68,1.53,6.68,9.71v37.45h-6.95v3.29h32.2v-3.29h-8.42Z"/>
  <path class="st0" d="M868.35,112.75v9.88h0c3.3-7.07,11.58-11.76,19.76-11.76,11.58,0,17.19,6.15,17.19,19.33v32.93h8.42v3.29h-32.2v-3.29h6.95v-37.45c0-8.19-2.25-9.71-6.68-9.71-6.67,0-12.4,10.45-13.45,14.98v32.18s7.2,0,7.2,0v3.29h-32.44v-3.29h8.41v-47.08h-8.41v-3.29h25.25Z"/>
  <path class="st0" d="M331.24,163.1v-32.93c0-13.17-5.61-19.33-17.19-19.33-8.18,0-16.46,4.69-19.76,11.76h0v-9.88h-25.25v3.29h8.41v47.08h-8.41v3.29h32.44v-3.29h-7.2v-32.18c1.05-4.53,6.79-14.98,13.45-14.98,4.43,0,6.68,1.53,6.68,9.71v37.45h-6.95v3.29h32.2v-3.29h-8.42Z"/>
  <path class="st0" d="M461.27,95.89c0,4.67,3.73,8.4,8.4,8.4s8.4-3.73,8.4-8.4-3.73-8.4-8.4-8.4-8.4,3.74-8.4,8.4"/>
  <path class="st0" d="M1427.46,112.41v3.54c5.2-.02,7.48.48,7.48,2.83,0,1.96-.62,3.88-2.07,7.41l-8.29,19.52-13.22-29.75h6.93v-3.55h-42.05v-26.16h-2.2c0,12.92-8.78,26.22-21.1,26.22v3.49h6.47v37.74c0,11.59,10,13.9,13.41,13.9,7.44,0,12.44-3.04,16.22-9.39l-2.61-1.44c-1.46,2.19-3.41,5.12-6.46,5.12-2.44,0-3.73-1.73-3.73-5.76v-40.18h17l22.29,51.39-7.71,18.17-.02.04h0s0,0,0,0c-.17.35-.52.59-.93.59-.45,0-.8-.29-.95-.69v-.05c-1.01-3.53-4.19-6.11-8.06-6.11-4.67,0-8.4,3.74-8.4,8.4,0,3.28,1.87,6.07,4.59,7.46,0,0-.03,0-.04,0,.09.04.18.08.27.12.16.08.32.16.49.22.95.39,1.97.63,3.06.65,7.08.59,10.7-4.63,13.2-9.96.57-1.21,1.08-2.42,1.55-3.58,1.07-2.58,2.94-7.01,5.14-12.2h0s2.12-4.97,2.12-4.97h0s17.15-40.56,17.15-40.56c3.65-7.97,5.07-8.99,9.5-8.99h.01v-3.51h-19.03Z"/>
  <path class="st0" d="M256.75,110.69c-7.8,0-13.79,5.36-16.1,11.47h-.24v-9.29h-25v3.41h8.42v46.93h-8.42v3.34h36.47v-3.34h-11.22v-26.28c0-7.85,2.05-15.88,7.21-20.3.3-.22.7-.28,1.06-.1.4.2.59.62.55,1.04v.02c-.32.95-.59,2.09-.64,3.48-.17,4.43,3.54,7.92,8.3,7.92,5.85,0,9.27-4.27,9.27-8.9,0-5.86-3.9-9.39-9.64-9.39Z"/>
  <path class="st0" d="M440.33,114.67c.24-.06.55-.2.73,0s.18.42.04.66v.02c-.75,1.24-1.03,2.8-.45,4.48.56,1.64,1.99,2.94,3.68,3.32,3.49.79,6.52-1.78,6.52-5.11,0-2.16-1.34-3.79-2.88-4.76-1.54-.97-3.38-1.42-5.37-1.42-3.25,0-6.57,1.74-8.96,3.82l-.02-.02c-.55-.4-1.12-.77-1.74-1.13-3.35-1.95-7.73-3.26-13.51-3.26-10.25,0-21.22,6.71-21.22,17.81,0,6.7,3.66,11.95,10.13,14.88v.24c-4.76.61-12.2,3.9-12.2,14.03,0,6.1,2.81,10.73,7.93,12.2v.24c-4.88,1.34-10.49,6.22-10.49,12.08,0,9.03,10.61,15.98,24.15,15.98,16.95,0,28.05-11.47,28.05-26.34,0-11.83-5.85-17.2-17.81-16.95h-20.25c-3.05,0-5.08-.12-5.08-3.42,0-3.05,4.68-6.34,9.31-6.34.81,0,2.13.62,2.48.73,1.47.48,3.06.73,5.01.73,10.49,0,21.71-5.98,21.71-17.57,0-3.59-1.56-8.48-4.46-11.53-.17-.18-.16-.47.03-.63,1.17-.93,2.54-1.72,3.18-2.08.53-.29.94-.5,1.44-.65h.04ZM424.12,170.79c12.2,0,15.44.51,15.44,7.95,0,8.9-10.91,17.08-23.22,17.08-10.98,0-16.24-6.73-16.49-12.59,0-5.37,2.67-8.9,5.96-12.44h18.31ZM426.19,129.12c0,14.18-3.29,14.65-7.68,14.65-4.88,0-7.44-.94-7.44-15.02,0-9.88,1.1-14.08,7.44-14.08,5.73,0,7.56.38,7.68,14.41v.04Z"/>
  <path class="st0" d="M1264.95,110.2c-7.8,0-13.79,5.36-16.1,11.47h-.24v-9.29h-25v3.41h8.42v46.93h-8.42v3.34h36.47v-3.34h-11.22v-26.28c0-7.84,2.05-15.86,7.2-20.29.3-.21.69-.27,1.05-.1.4.2.59.62.55,1.04l.02.04c-.32.94-.59,2.07-.64,3.44-.17,4.43,3.54,7.92,8.3,7.92,5.85,0,9.27-4.27,9.27-8.9,0-5.86-3.9-9.39-9.64-9.39Z"/>
</svg>