<?xml version="1.0" encoding="UTF-8"?>
<svg id="Layer_1" xmlns="http://www.w3.org/2000/svg" version="1.1" viewBox="0 0 792 360">
  <!-- Generator: Adobe Illustrator 30.0.0, SVG Export Plug-In . SVG Version: 2.1.1 Build 123)  -->
  <defs>
    <style>
      .st0 {
        fill: #231f20;
      }
    </style>
  </defs>
  <g>
    <g>
      <path class="st0" d="M141.81,184.25c0-4.53,3.67-8.2,8.2-8.2s8.2,3.67,8.2,8.2-3.67,8.19-8.2,8.19-8.2-3.67-8.2-8.19Z"/>
      <path class="st0" d="M122.86,184.25c0-4.07,3.3-7.38,7.37-7.38s7.38,3.3,7.38,7.38-3.31,7.37-7.38,7.37-7.37-3.3-7.37-7.37Z"/>
      <path class="st0" d="M104.57,184.25c0-3.67,2.98-6.64,6.65-6.64s6.63,2.97,6.63,6.64-2.97,6.64-6.63,6.64-6.65-2.97-6.65-6.64Z"/>
      <path class="st0" d="M86.39,184.25c0-3.3,2.68-5.98,5.98-5.98s5.97,2.68,5.97,5.98-2.67,5.97-5.97,5.97-5.98-2.67-5.98-5.97Z"/>
      <path class="st0" d="M67.96,184.25c0-2.97,2.41-5.38,5.38-5.38s5.38,2.41,5.38,5.38-2.41,5.38-5.38,5.38-5.38-2.41-5.38-5.38Z"/>
      <path class="st0" d="M49.1,184.25c0-2.68,2.17-4.84,4.84-4.84s4.84,2.16,4.84,4.84-2.17,4.84-4.84,4.84-4.84-2.17-4.84-4.84Z"/>
    </g>
    <g>
      <path class="st0" d="M176.59,147.41c4.53,0,8.2,3.67,8.2,8.19s-3.68,8.2-8.2,8.2-8.19-3.67-8.19-8.2,3.67-8.19,8.19-8.19Z"/>
      <path class="st0" d="M176.59,128.46c4.07,0,7.38,3.31,7.38,7.38s-3.3,7.38-7.38,7.38-7.37-3.3-7.37-7.38,3.3-7.38,7.37-7.38Z"/>
      <path class="st0" d="M176.59,110.17c3.67,0,6.64,2.97,6.64,6.64s-2.97,6.64-6.64,6.64-6.64-2.97-6.64-6.64,2.97-6.64,6.64-6.64Z"/>
      <path class="st0" d="M176.59,91.99c3.3,0,5.98,2.68,5.98,5.98s-2.68,5.98-5.98,5.98-5.98-2.67-5.98-5.98,2.67-5.98,5.98-5.98Z"/>
      <path class="st0" d="M176.59,73.57c2.97,0,5.38,2.41,5.38,5.38s-2.41,5.38-5.38,5.38-5.38-2.41-5.38-5.38,2.41-5.38,5.38-5.38Z"/>
      <path class="st0" d="M176.59,54.7c2.68,0,4.85,2.17,4.85,4.84s-2.17,4.83-4.85,4.83-4.84-2.16-4.84-4.83,2.17-4.84,4.84-4.84Z"/>
    </g>
    <g>
      <path class="st0" d="M128.77,162c1.54-3.34,5.48-4.8,8.81-3.26,3.33,1.53,4.79,5.47,3.25,8.81-1.53,3.34-5.47,4.79-8.8,3.26-3.34-1.53-4.79-5.47-3.26-8.81Z"/>
      <path class="st0" d="M112.26,154.39c1.38-2.99,4.94-4.31,7.93-2.92,3,1.38,4.31,4.93,2.93,7.92-1.38,3-4.93,4.32-7.92,2.93-3-1.38-4.32-4.93-2.94-7.93Z"/>
      <path class="st0" d="M95.52,146.68c1.24-2.69,4.44-3.87,7.14-2.63,2.69,1.24,3.89,4.43,2.64,7.13-1.25,2.7-4.44,3.89-7.14,2.64-2.69-1.25-3.88-4.43-2.64-7.14Z"/>
      <path class="st0" d="M78.39,138.8c1.12-2.43,4-3.5,6.43-2.38,2.42,1.12,3.49,3.99,2.37,6.42-1.12,2.44-4,3.49-6.42,2.37-2.43-1.11-3.49-3.99-2.37-6.41Z"/>
    </g>
    <g>
      <path class="st0" d="M157.03,134.18c3.48-1.18,7.25.68,8.42,4.16,1.18,3.47-.69,7.24-4.16,8.42-3.47,1.18-7.24-.68-8.42-4.15-1.19-3.47.68-7.24,4.15-8.42Z"/>
      <path class="st0" d="M151.19,116.96c3.12-1.06,6.53.62,7.58,3.75,1.06,3.12-.62,6.52-3.75,7.57-3.12,1.07-6.52-.61-7.57-3.73-1.07-3.13.6-6.53,3.73-7.6Z"/>
      <path class="st0" d="M145.27,99.51c2.81-.95,5.87.55,6.82,3.37.96,2.8-.54,5.86-3.36,6.82-2.82.95-5.87-.55-6.82-3.37-.95-2.8.54-5.86,3.36-6.81Z"/>
      <path class="st0" d="M139.21,81.65c2.53-.85,5.29.5,6.15,3.03.85,2.53-.5,5.28-3.04,6.14-2.53.87-5.28-.5-6.13-3.04-.86-2.52.5-5.28,3.02-6.13Z"/>
    </g>
    <g>
      <path class="st0" d="M150.72,157.59c-3.21,3.2-3.21,8.39,0,11.59,3.19,3.21,8.39,3.2,11.59,0,3.21-3.2,3.21-8.39,0-11.59-3.2-3.2-8.39-3.21-11.59,0Z"/>
      <path class="st0" d="M137.33,144.17c-2.89,2.88-2.89,7.55,0,10.43,2.88,2.88,7.55,2.88,10.43.01,2.89-2.88,2.89-7.56,0-10.44-2.88-2.88-7.55-2.88-10.43,0Z"/>
      <path class="st0" d="M124.41,131.23c-2.6,2.59-2.6,6.79-.01,9.39,2.6,2.59,6.8,2.59,9.4,0,2.6-2.6,2.6-6.8,0-9.39-2.58-2.6-6.8-2.61-9.38,0Z"/>
      <path class="st0" d="M111.56,118.37c-2.33,2.34-2.34,6.12,0,8.46,2.33,2.34,6.12,2.34,8.46,0,2.33-2.33,2.34-6.12,0-8.45-2.33-2.34-6.11-2.35-8.45-.01Z"/>
      <path class="st0" d="M98.53,105.33c-2.1,2.11-2.1,5.51,0,7.62,2.1,2.09,5.5,2.09,7.61,0,2.1-2.11,2.1-5.5,0-7.6-2.1-2.11-5.5-2.11-7.61-.02Z"/>
      <path class="st0" d="M85.2,91.98c-1.89,1.89-1.89,4.96,0,6.86,1.89,1.89,4.95,1.88,6.84,0,1.89-1.88,1.9-4.95,0-6.84-1.89-1.9-4.96-1.9-6.85-.01Z"/>
    </g>
    <g>
      <path class="st0" d="M176.69,221.53c-4.53,0-8.2-3.67-8.2-8.2s3.67-8.19,8.2-8.19,8.2,3.67,8.2,8.19-3.67,8.2-8.2,8.2Z"/>
      <path class="st0" d="M176.69,240.48c-4.07,0-7.38-3.3-7.38-7.38s3.3-7.38,7.38-7.38,7.38,3.3,7.38,7.38-3.3,7.38-7.38,7.38Z"/>
      <path class="st0" d="M176.69,258.78c-3.67,0-6.64-2.97-6.64-6.65s2.97-6.63,6.64-6.63,6.64,2.97,6.64,6.63-2.97,6.65-6.64,6.65Z"/>
      <path class="st0" d="M176.69,276.95c-3.3,0-5.98-2.68-5.98-5.98s2.67-5.98,5.98-5.98,5.98,2.68,5.98,5.98-2.67,5.98-5.98,5.98Z"/>
      <path class="st0" d="M176.69,295.38c-2.97,0-5.38-2.41-5.38-5.38s2.41-5.38,5.38-5.38,5.38,2.41,5.38,5.38-2.41,5.38-5.38,5.38Z"/>
      <path class="st0" d="M176.69,314.24c-2.67,0-4.84-2.17-4.84-4.84s2.16-4.84,4.84-4.84,4.84,2.17,4.84,4.84-2.17,4.84-4.84,4.84Z"/>
    </g>
    <g>
      <path class="st0" d="M156.77,233.02c-3.34-1.54-4.8-5.48-3.26-8.81,1.53-3.33,5.47-4.79,8.81-3.26,3.33,1.54,4.78,5.47,3.25,8.81-1.53,3.33-5.47,4.79-8.81,3.26Z"/>
      <path class="st0" d="M149.16,249.53c-2.99-1.38-4.31-4.94-2.93-7.93,1.38-3,4.93-4.31,7.93-2.93,3,1.38,4.32,4.93,2.93,7.92-1.38,3-4.93,4.32-7.93,2.94Z"/>
      <path class="st0" d="M141.46,266.27c-2.69-1.24-3.87-4.44-2.63-7.14,1.24-2.69,4.43-3.88,7.13-2.64,2.71,1.25,3.89,4.44,2.64,7.14-1.25,2.69-4.43,3.89-7.14,2.64Z"/>
      <path class="st0" d="M133.58,283.4c-2.43-1.12-3.5-3.99-2.38-6.42,1.12-2.42,4-3.49,6.43-2.37,2.43,1.12,3.49,3.99,2.37,6.42-1.11,2.42-3.99,3.49-6.41,2.37Z"/>
    </g>
    <g>
      <path class="st0" d="M128.64,205.23c-1.18-3.48.68-7.26,4.16-8.42,3.47-1.18,7.24.69,8.41,4.16,1.18,3.47-.68,7.24-4.15,8.42-3.47,1.19-7.24-.68-8.42-4.15Z"/>
      <path class="st0" d="M111.42,211.06c-1.06-3.12.62-6.53,3.75-7.58,3.12-1.06,6.52.62,7.57,3.74,1.07,3.13-.61,6.52-3.73,7.57-3.13,1.07-6.53-.6-7.59-3.73Z"/>
      <path class="st0" d="M93.98,216.98c-.95-2.81.56-5.87,3.37-6.82,2.8-.96,5.86.54,6.82,3.36.95,2.82-.55,5.87-3.38,6.82-2.8.95-5.86-.55-6.81-3.36Z"/>
      <path class="st0" d="M76.11,223.04c-.85-2.53.5-5.29,3.03-6.15,2.53-.85,5.28.5,6.14,3.03.87,2.54-.5,5.29-3.04,6.14-2.52.86-5.28-.5-6.13-3.02Z"/>
    </g>
    <g>
      <path class="st0" d="M151.12,210.13c3.2,3.21,8.39,3.22,11.6,0,3.21-3.19,3.2-8.39,0-11.59-3.2-3.2-8.39-3.2-11.59,0-3.21,3.2-3.21,8.38,0,11.59Z"/>
      <path class="st0" d="M137.71,223.52c2.88,2.89,7.55,2.89,10.43,0,2.88-2.88,2.88-7.54,0-10.42-2.88-2.89-7.56-2.89-10.44,0-2.88,2.88-2.88,7.55,0,10.42Z"/>
      <path class="st0" d="M124.77,236.45c2.59,2.59,6.79,2.6,9.39,0,2.6-2.59,2.6-6.79,0-9.4-2.6-2.59-6.8-2.59-9.39,0-2.6,2.59-2.6,6.79,0,9.39Z"/>
      <path class="st0" d="M111.9,249.3c2.34,2.33,6.12,2.34,8.45,0,2.34-2.33,2.34-6.12,0-8.46-2.33-2.33-6.12-2.34-8.45,0-2.34,2.33-2.35,6.11-.01,8.45Z"/>
      <path class="st0" d="M98.86,262.32c2.1,2.11,5.51,2.1,7.61,0,2.1-2.1,2.1-5.5,0-7.61-2.11-2.1-5.5-2.1-7.61,0-2.1,2.1-2.11,5.5-.01,7.61Z"/>
      <path class="st0" d="M85.52,275.66c1.89,1.89,4.96,1.89,6.86,0,1.89-1.89,1.88-4.95,0-6.84-1.88-1.89-4.95-1.89-6.84,0-1.9,1.9-1.9,4.96,0,6.85Z"/>
    </g>
  </g>
  <g>
    <path class="st0" d="M255.15,188.22c-.3-6.49-.67-14.26-.6-21.12h-.22c-1.64,6.12-3.73,12.91-5.97,19.26l-7.39,21.8h-7.02l-6.72-21.5c-1.94-6.42-3.73-13.29-5.08-19.56h-.15c-.22,6.57-.52,14.56-.9,21.42l-1.12,20.23h-8.58l3.36-50.31h12.09l6.57,20.23c1.79,5.9,3.36,11.87,4.63,17.47h.22c1.34-5.45,3.06-11.64,5-17.54l6.94-20.15h11.94l2.91,50.31h-8.96l-.97-20.53Z"/>
    <path class="st0" d="M303.6,197.85c0,4.33.15,7.91.3,10.9h-7.99l-.45-5.45h-.22c-1.57,2.54-5.15,6.27-11.72,6.27s-12.61-3.96-12.61-15.83v-21.35h9.18v19.78c0,6.05,1.94,9.93,6.79,9.93,3.73,0,6.12-2.54,7.02-4.93.37-.75.52-1.79.52-2.84v-21.95h9.18v25.45Z"/>
    <path class="st0" d="M311.43,200.24c2.02,1.27,5.97,2.69,9.26,2.69,4.03,0,5.82-1.72,5.82-4.11s-1.49-3.66-5.97-5.3c-7.09-2.39-10-6.27-10-10.6,0-6.42,5.3-11.35,13.73-11.35,4.03,0,7.54.97,9.7,2.16l-1.87,6.42c-1.49-.9-4.48-2.09-7.69-2.09s-5.08,1.64-5.08,3.88,1.72,3.36,6.34,5.08c6.64,2.31,9.63,5.67,9.7,11.05,0,6.64-5.15,11.42-14.78,11.42-4.4,0-8.36-1.04-11.05-2.54l1.87-6.72Z"/>
    <path class="st0" d="M347.71,193.15c.22,6.57,5.37,9.41,11.2,9.41,4.25,0,7.24-.67,10.08-1.64l1.34,6.27c-3.13,1.34-7.46,2.31-12.69,2.31-11.79,0-18.74-7.24-18.74-18.36,0-10.08,6.12-19.56,17.77-19.56s15.68,9.7,15.68,17.69c0,1.72-.15,3.06-.3,3.88h-24.33ZM363.68,186.73c.07-3.36-1.42-8.88-7.54-8.88-5.67,0-8.06,5.15-8.44,8.88h15.97Z"/>
    <path class="st0" d="M410.56,197.85c0,4.33.15,7.91.3,10.9h-7.99l-.45-5.45h-.22c-1.57,2.54-5.15,6.27-11.72,6.27s-12.61-3.96-12.61-15.83v-21.35h9.18v19.78c0,6.05,1.94,9.93,6.79,9.93,3.73,0,6.12-2.54,7.02-4.93.37-.75.52-1.79.52-2.84v-21.95h9.18v25.45Z"/>
    <path class="st0" d="M417.5,183.22c0-4.18-.15-7.69-.3-10.82h7.84l.45,5.37h.22c1.72-2.84,5-6.2,11.2-6.2,4.78,0,8.51,2.69,10.08,6.72h.15c1.27-2.02,2.76-3.51,4.4-4.55,2.09-1.42,4.4-2.16,7.46-2.16,5.97,0,12.09,4.11,12.09,15.75v21.42h-8.96v-20.08c0-6.05-2.09-9.63-6.49-9.63-3.13,0-5.45,2.24-6.42,4.85-.3.82-.45,2.02-.45,3.06v21.8h-8.96v-21.05c0-5.08-2.02-8.66-6.27-8.66-3.43,0-5.75,2.69-6.64,5.15-.3.97-.45,2.01-.45,3.06v21.5h-8.96v-25.53Z"/>
    <path class="st0" d="M490.78,204.82c0,1.48.07,2.92.27,3.93h-3.73l-.3-1.81h-.1c-.97,1.28-2.69,2.18-4.84,2.18-3.29,0-5.14-2.38-5.14-4.87,0-4.1,3.66-6.21,9.71-6.18v-.27c0-1.08-.44-2.86-3.33-2.86-1.61,0-3.29.5-4.4,1.21l-.81-2.69c1.21-.74,3.33-1.44,5.91-1.44,5.24,0,6.75,3.33,6.75,6.92v5.88ZM486.75,200.75c-2.92-.03-5.71.57-5.71,3.06,0,1.61,1.04,2.35,2.35,2.35,1.68,0,2.86-1.08,3.26-2.25.1-.3.1-.6.1-.91v-2.25Z"/>
    <path class="st0" d="M495.15,197.26c0-1.88-.07-3.46-.13-4.87h3.59l.2,2.45h.1c.74-1.28,2.52-2.82,5.24-2.82,2.86,0,5.81,1.85,5.81,7.02v9.71h-4.13v-9.24c0-2.35-.87-4.13-3.12-4.13-1.65,0-2.79,1.17-3.22,2.42-.13.34-.2.84-.2,1.31v9.64h-4.13v-11.49Z"/>
    <path class="st0" d="M529.44,184.87v19.28c0,1.68.07,3.49.13,4.6h-3.66l-.2-2.59h-.07c-.97,1.81-2.95,2.96-5.31,2.96-3.93,0-7.02-3.33-7.02-8.36-.03-5.48,3.39-8.73,7.32-8.73,2.25,0,3.86.91,4.6,2.12h.07v-9.27h4.13ZM525.31,199.21c0-.34-.03-.77-.1-1.11-.37-1.58-1.68-2.89-3.56-2.89-2.65,0-4.13,2.35-4.13,5.37s1.48,5.21,4.1,5.21c1.68,0,3.16-1.14,3.56-2.92.1-.37.13-.77.13-1.21v-2.45Z"/>
    <path class="st0" d="M536.96,158.44h9.18v42.62h20.68v7.69h-29.86v-50.31Z"/>
    <path class="st0" d="M576.45,167.17c-3.06,0-5.08-2.24-5.08-4.93,0-2.84,2.09-5,5.15-5s5.08,2.16,5.15,5c0,2.69-2.02,4.93-5.15,4.93h-.08ZM571.89,208.75v-36.35h9.18v36.35h-9.18Z"/>
    <path class="st0" d="M588.02,155.68h9.18v21.72h.15c2.24-3.51,6.2-5.82,11.64-5.82,8.88,0,15.23,7.39,15.15,18.44,0,13.06-8.29,19.56-16.5,19.56-4.7,0-8.88-1.79-11.5-6.27h-.15l-.45,5.45h-7.84c.15-2.46.3-6.49.3-10.15v-42.92ZM597.2,193.74c0,.75.08,1.49.22,2.17.97,3.73,4.18,6.42,8.14,6.42,5.75,0,9.26-4.55,9.26-11.94,0-6.42-3.06-11.64-9.18-11.64-3.73,0-7.16,2.69-8.14,6.72-.15.67-.3,1.49-.3,2.39v5.9Z"/>
    <path class="st0" d="M630.19,184.12c0-4.93-.08-8.51-.3-11.72h7.91l.37,6.87h.22c1.79-5.08,6.05-7.69,10-7.69.9,0,1.42.07,2.17.22v8.58c-.82-.15-1.64-.22-2.76-.22-4.33,0-7.39,2.76-8.21,6.94-.15.82-.22,1.79-.22,2.76v18.88h-9.18v-24.63Z"/>
    <path class="st0" d="M683.49,200.01c0,3.28.15,6.49.6,8.73h-8.29l-.67-4.03h-.22c-2.17,2.84-5.97,4.85-10.75,4.85-7.32,0-11.42-5.3-11.42-10.82,0-9.11,8.14-13.81,21.57-13.74v-.6c0-2.39-.97-6.34-7.39-6.34-3.58,0-7.31,1.12-9.78,2.69l-1.79-5.97c2.69-1.64,7.39-3.21,13.14-3.21,11.64,0,15,7.39,15,15.38v13.06ZM674.53,190.98c-6.49-.07-12.69,1.27-12.69,6.79,0,3.58,2.31,5.22,5.22,5.22,3.73,0,6.34-2.39,7.24-5,.22-.67.22-1.34.22-2.01v-5Z"/>
    <path class="st0" d="M690.2,184.12c0-4.93-.08-8.51-.3-11.72h7.91l.37,6.87h.22c1.79-5.08,6.05-7.69,10-7.69.9,0,1.42.07,2.17.22v8.58c-.82-.15-1.64-.22-2.76-.22-4.33,0-7.39,2.76-8.21,6.94-.15.82-.22,1.79-.22,2.76v18.88h-9.18v-24.63Z"/>
    <path class="st0" d="M722.75,172.4l6.49,19.48c.75,2.24,1.57,5,2.09,7.02h.22c.52-2.01,1.19-4.78,1.94-7.09l5.67-19.41h9.78l-9.11,24.78c-5,13.59-8.36,19.63-12.62,23.36-3.66,3.13-7.39,4.33-9.63,4.63l-2.09-7.69c1.57-.37,3.43-1.19,5.3-2.54,1.72-1.12,3.81-3.28,5.08-5.75.3-.67.52-1.19.52-1.64,0-.37-.07-.9-.45-1.79l-13.36-33.37h10.15Z"/>
  </g>
  <g>
    <path class="st0" d="M274,160.56c-1.21-.05-1.55-.05-2.81.05l-.29-.29c.05-2.33.05-4.37.05-6.02,0-1.02,0-13-.34-19.7l.34-.34c1.12.05,1.5.05,2.81-.05l.29.34v1.07c-.05,2.18-.05,4.32-.05,6.5,0,7.08.15,12.61.29,18.15l-.29.29Z"/>
    <path class="st0" d="M301.75,160.56c-.44,0-.92-.05-1.41-.05-.34,0-1.99.1-2.28.1l-.39-.19c-1.26-1.99-2.43-3.98-3.64-5.97l-9.99-17.08.1,5.05c.1,11.98.15,13.34.29,17.81l-.29.34c-1.02,0-1.41,0-2.43.05l-.29-.29c0-.73,0-16.74-.1-20.43,0-.82-.15-5-.15-5.29l.29-.34c1.02,0,2.67-.05,3.69-.05l.39.24c1.16,1.79,1.46,2.28,3.88,6.4,1.55,2.67,3.11,5.29,4.71,7.91l5.05,8.68v-5c-.05-4.27-.1-12.52-.34-17.85l.29-.34c1.16,0,1.26,0,2.33-.05l.34.29c-.05,2.28-.05,4.27-.05,5.92,0,6.74.05,13.49.34,19.84l-.34.29Z"/>
    <path class="st0" d="M308.06,155.86c1.36,2.09,4.12,2.86,6.11,2.86,3.49,0,6.11-1.99,6.11-5,0-2.09-1.26-3.2-3.06-4.12-.73-.39-4.32-1.99-5.09-2.43-2.04-.97-5-2.57-5-6.45,0-3.54,2.72-6.94,8.54-6.94,2.38,0,4.71.63,6.79,1.84l.15.34c-.19,1.12-.19,1.21-.34,2.28l-.44.19c-1.12-.97-2.91-2.23-5.92-2.23-5.43,0-5.73,3.64-5.73,4.46,0,2.13,1.79,3.2,4.12,4.27l2.72,1.21c2.52,1.07,6.36,2.77,6.36,7.42,0,4.12-3.35,7.52-8.98,7.52-3.69,0-5.82-1.31-7.03-2.04l-.15-.44c.05-.39.15-.78.24-1.16.05-.49.15-.97.19-1.46l.39-.15Z"/>
    <path class="st0" d="M336.64,160.51c-1.07.05-1.21.05-2.77.1l-.29-.29c.05-2.67.05-5.19.05-7.86,0-3.35,0-13-.05-15.72-1.7,0-6.06.1-7.91.15l-.29-.34c.05-.78.1-1.07.15-2.13l.39-.24c.58,0,3.44.1,4.12.1h8.73c3.1,0,4.66-.05,5.63-.1l.34.29c-.1.82-.15,1.31-.19,2.18l-.34.24c-1.26-.05-2.52-.1-4.12-.15-.53,0-3.15-.05-3.44-.05-.05,1.12-.05,2.28-.05,3.4,0,2.43.05,4.9.1,7.37.05,2.47.05,5,.1,7.47,0,.78.15,4.46.15,5.29l-.29.29Z"/>
    <path class="st0" d="M351.72,160.56c-1.21-.05-1.55-.05-2.81.05l-.29-.29c.05-2.33.05-4.37.05-6.02,0-1.02,0-13-.34-19.7l.34-.34c1.12.05,1.5.05,2.81-.05l.29.34v1.07c-.05,2.18-.05,4.32-.05,6.5,0,7.08.15,12.61.29,18.15l-.29.29Z"/>
    <path class="st0" d="M366.91,160.51c-1.07.05-1.21.05-2.77.1l-.29-.29c.05-2.67.05-5.19.05-7.86,0-3.35,0-13-.05-15.72-1.7,0-6.06.1-7.91.15l-.29-.34c.05-.78.1-1.07.15-2.13l.39-.24c.58,0,3.44.1,4.12.1h8.73c3.1,0,4.66-.05,5.63-.1l.34.29c-.1.82-.15,1.31-.19,2.18l-.34.24c-1.26-.05-2.52-.1-4.12-.15-.53,0-3.15-.05-3.44-.05-.05,1.12-.05,2.28-.05,3.4,0,2.43.05,4.9.1,7.37.05,2.47.05,5,.1,7.47,0,.78.15,4.46.15,5.29l-.29.29Z"/>
    <path class="st0" d="M398.25,134.51v.58c-.05,4.61-.05,5.14-.05,9.51v4.85c-.05,2.72-.1,4.85-.97,6.74-1.5,3.35-5.05,4.9-8.93,4.9-2.43,0-4.61-.63-6.11-1.75-3.35-2.43-3.3-6.4-3.3-9.36v-2.18c0-2.91,0-10.53-.05-13.2l.29-.34c1.41,0,1.46,0,2.86-.05l.29.29c-.15,4.66-.24,9.27-.24,13.92s.1,6.94,1.84,8.59c.97.87,2.62,1.5,4.8,1.5,2.47,0,4.71-.87,5.82-3.06.82-1.65.87-3.74.87-7.67,0-4.42-.05-8.83-.19-13.25l.29-.29c1.16,0,1.36,0,2.47-.05l.29.29Z"/>
    <path class="st0" d="M413.39,160.51c-1.07.05-1.21.05-2.77.1l-.29-.29c.05-2.67.05-5.19.05-7.86,0-3.35,0-13-.05-15.72-1.7,0-6.06.1-7.91.15l-.29-.34c.05-.78.1-1.07.15-2.13l.39-.24c.58,0,3.45.1,4.12.1h8.73c3.11,0,4.66-.05,5.63-.1l.34.29c-.1.82-.15,1.31-.19,2.18l-.34.24c-1.26-.05-2.52-.1-4.12-.15-.53,0-3.15-.05-3.45-.05-.05,1.12-.05,2.28-.05,3.4,0,2.43.05,4.9.1,7.37.05,2.47.05,5,.1,7.47,0,.78.15,4.46.15,5.29l-.29.29Z"/>
    <path class="st0" d="M440.17,160.56h-11.3c-1.26.05-1.94.1-3.3.15l-.29-.34v-1.02c.05-1.55.05-3.15.05-4.71,0-6.55-.1-13.58-.34-20.13l.34-.29c1.02.05,1.89.05,2.86.05h6.55c2.18,0,3.83-.05,5.34-.1l.34.29c-.1.97-.1,1.21-.15,2.13l-.34.29c-1.94-.1-2.72-.1-9.9-.15l-1.79-.05c0,2.86,0,6.16.05,8.98h3.3c1.21,0,2.47,0,3.69-.05,2.52,0,2.72,0,4.32-.05l.24.29c-.1.97-.1,1.07-.1,2.04l-.34.24c-1.75-.1-2.91-.1-7.91-.05h-3.15c0,1.75.1,9.27.15,9.99h2.91c3.44,0,3.98,0,8.98-.15l.24.34c-.1.92-.1,1.02-.1,2.04l-.34.24Z"/>
    <path class="st0" d="M460.82,160.96c-4.3,0-6.58-2.38-6.58-6.58,0-3.93,1.95-11.42,9.51-11.42,4.67,0,6.52,2.99,6.52,6.58,0,1.18-.2,2.35-.54,3.53-.44,1.61-2.18,7.89-8.9,7.89ZM468.08,149.38c0-3.59-2.42-4.74-4.4-4.74-6.32,0-7.29,8.06-7.29,9.81,0,2.82,1.54,4.8,4.53,4.8,1.14,0,2.32-.17,3.53-1.14,2.22-1.78,2.96-4.77,3.22-5.91.24-.94.4-1.88.4-2.82Z"/>
    <path class="st0" d="M478.46,145.04c-1.68,7.29-2.05,9-3.19,15.28l-.27.24-1.88.07-.2-.2,1.58-7.05,1.81-8.33-2.52.07-.2-.2.37-1.44.27-.2,2.45.07.5-2.49c.4-1.81.54-2.55.84-3.29.5-1.38,1.48-3.16,4.63-3.16.71,0,1.21.1,1.81.2l.2.27-.34,1.44-.27.2c-.47-.13-.97-.24-1.48-.24-.67,0-1.34.2-1.78.64-.67.64-.91,1.55-1.58,4.27l-.44,2.15,3.33-.07.2.27-.44,1.24-.24.27h-3.19Z"/>
  </g>
  <g>
    <path class="st0" d="M537.25,242.51c1.36,2.09,4.12,2.86,6.11,2.86,3.49,0,6.11-1.99,6.11-5,0-2.09-1.26-3.2-3.06-4.12-.73-.39-4.32-1.99-5.09-2.43-2.04-.97-5-2.57-5-6.45,0-3.54,2.72-6.94,8.54-6.94,2.38,0,4.71.63,6.79,1.84l.15.34c-.19,1.12-.19,1.21-.34,2.28l-.44.19c-1.12-.97-2.91-2.23-5.92-2.23-5.43,0-5.72,3.64-5.72,4.46,0,2.13,1.79,3.2,4.12,4.27l2.72,1.21c2.52,1.07,6.36,2.77,6.36,7.42,0,4.12-3.35,7.52-8.98,7.52-3.69,0-5.82-1.31-7.04-2.04l-.15-.44c.05-.39.15-.78.24-1.16.05-.49.15-.97.19-1.46l.39-.15Z"/>
    <path class="st0" d="M574.85,247.21h-11.3c-1.26.05-1.94.1-3.3.15l-.29-.34v-1.02c.05-1.55.05-3.15.05-4.71,0-6.55-.1-13.58-.34-20.14l.34-.29c1.02.05,1.89.05,2.86.05h6.55c2.18,0,3.83-.05,5.34-.1l.34.29c-.1.97-.1,1.21-.15,2.13l-.34.29c-1.94-.1-2.72-.1-9.9-.15l-1.79-.05c0,2.86,0,6.16.05,8.98h3.3c1.21,0,2.47,0,3.69-.05,2.52,0,2.72,0,4.32-.05l.24.29c-.1.97-.1,1.07-.1,2.04l-.34.24c-1.75-.1-2.91-.1-7.91-.05h-3.15c0,1.75.1,9.27.15,9.99h2.91c3.45,0,3.98,0,8.98-.15l.24.34c-.1.92-.1,1.02-.1,2.04l-.34.24Z"/>
    <path class="st0" d="M582.76,221.01c.15,0,7.37-.1,7.57-.1,2.04,0,4.03.1,5.73.83,2.33,1.07,3.83,3.35,3.83,6.11,0,3.98-3.15,6.79-7.47,7.33l2.52,3.1c3.06,3.74,3.59,4.37,7.04,8.54l-.19.39h-2.09c-.44,0-.92.05-1.36.05l-.39-.19c-.73-.97-1.5-1.94-2.23-2.91-1.02-1.31-2.09-2.57-3.11-3.83-.73-.92-3.4-4.27-3.83-4.8-1.26.05-1.6.05-2.96.05,0,3.78.1,7.57.24,11.35l-.29.29c-1.21,0-1.5,0-2.77.05l-.29-.29c.05-1.99.05-4.03.05-6.02,0-6.55-.05-13.1-.34-19.65l.34-.29ZM592.85,232.66c1.26-.34,3.88-1.36,3.88-4.71,0-1.6-.63-2.72-1.41-3.4-1.26-1.12-3.2-1.21-5.77-1.21-1.07,0-2.52.05-3.78.1v9.7c3.69,0,5.48,0,7.08-.49Z"/>
    <path class="st0" d="M617.16,247.21c-1.7,0-2.09,0-3.54.05l-.34-.29c-.78-2.18-1.89-5.77-2.62-8.01l-3.2-9.85c-.44-1.31-.87-2.62-1.31-3.93-.34-1.07-.92-2.77-1.26-3.83l.19-.34c1.7-.1,1.89-.1,3.01-.19l.34.24c.92,3.54,1.75,6.06,2.81,9.56l4.37,13.83,5.24-16.54c.78-2.47.92-2.91,2.04-6.79l.34-.24c1.21.05,1.5.05,2.67,0l.24.34c-.63,1.79-.87,2.47-3.06,8.78l-2.96,8.83c-1.12,3.35-1.26,3.83-2.67,8.1l-.29.29Z"/>
    <path class="st0" d="M635.11,247.21c-1.21-.05-1.55-.05-2.81.05l-.29-.29c.05-2.33.05-4.37.05-6.02,0-1.02,0-13-.34-19.7l.34-.34c1.12.05,1.5.05,2.81-.05l.29.34v1.07c-.05,2.18-.05,4.32-.05,6.5,0,7.08.15,12.61.29,18.15l-.29.29Z"/>
    <path class="st0" d="M663.49,242.65c-.15,1.31-.15,1.55-.19,2.67l-.19.39c-1.5,1.12-3.64,2.04-7.28,2.04-2.13,0-5.68-.29-8.73-3.15-2.86-2.62-4.12-6.45-4.12-10.38,0-7.47,4.61-13.83,13.15-13.83,3.64,0,5.68,1.12,6.84,1.75l.24.34c-.19.87-.24,1.07-.39,2.23l-.39.24c-1.26-.83-3.15-2.04-6.31-2.04-6.89,0-9.95,5.73-9.95,11.16s3.25,11.11,10.09,11.11c3.59,0,5.24-1.36,6.84-2.72l.39.19Z"/>
    <path class="st0" d="M686,247.21h-11.3c-1.26.05-1.94.1-3.3.15l-.29-.34v-1.02c.05-1.55.05-3.15.05-4.71,0-6.55-.1-13.58-.34-20.14l.34-.29c1.02.05,1.89.05,2.86.05h6.55c2.18,0,3.83-.05,5.34-.1l.34.29c-.1.97-.1,1.21-.15,2.13l-.34.29c-1.94-.1-2.72-.1-9.9-.15l-1.8-.05c0,2.86,0,6.16.05,8.98h3.3c1.21,0,2.47,0,3.69-.05,2.52,0,2.72,0,4.32-.05l.24.29c-.1.97-.1,1.07-.1,2.04l-.34.24c-1.75-.1-2.91-.1-7.91-.05h-3.15c0,1.75.1,9.27.15,9.99h2.91c3.44,0,3.98,0,8.98-.15l.24.34c-.1.92-.1,1.02-.1,2.04l-.34.24Z"/>
    <path class="st0" d="M692.7,242.51c1.36,2.09,4.12,2.86,6.11,2.86,3.49,0,6.11-1.99,6.11-5,0-2.09-1.26-3.2-3.06-4.12-.73-.39-4.32-1.99-5.09-2.43-2.04-.97-5-2.57-5-6.45,0-3.54,2.72-6.94,8.54-6.94,2.38,0,4.71.63,6.79,1.84l.15.34c-.19,1.12-.19,1.21-.34,2.28l-.44.19c-1.12-.97-2.91-2.23-5.92-2.23-5.43,0-5.73,3.64-5.73,4.46,0,2.13,1.8,3.2,4.12,4.27l2.72,1.21c2.52,1.07,6.36,2.77,6.36,7.42,0,4.12-3.35,7.52-8.98,7.52-3.69,0-5.82-1.31-7.04-2.04l-.15-.44c.05-.39.15-.78.24-1.16.05-.49.15-.97.19-1.46l.39-.15Z"/>
  </g>
</svg>